HIERARCHY
ROOT pelvis
{
  OFFSET 0 0 0
  CHANNELS 6 Xposition Yposition Zposition Zrotation Xrotation Yrotation
  JOINT pelvis_right_femur
  {
    OFFSET -11.43119 -3.542788 0.2090856
    CHANNELS 3 Zrotation Xrotation Yrotation
    JOINT right_femur_tibia
    {
      OFFSET -1.028693 -40.73281 5
      CHANNELS 3 Zrotation Xrotation Yrotation
      JOINT right_tibia_foot
      {
        OFFSET -0.5013517 -42.05707 -5
        CHANNELS 3 Zrotation Xrotation Yrotation
        End Site
        {
          OFFSET 0 -5 10
        }
      }
    }
  }
  JOINT pelvis_left_femur
  {
    OFFSET 11.43119 -3.542788 0.2090856
    CHANNELS 3 Zrotation Xrotation Yrotation
    JOINT left_femur_tibia
    {
      OFFSET 1.028693 -40.73281 5
      CHANNELS 3 Zrotation Xrotation Yrotation
      JOINT left_tibia_foot
      {
        OFFSET 0.3200228 -42.98253 -5
        CHANNELS 3 Zrotation Xrotation Yrotation
        End Site
        {
          OFFSET 0 -5 10
        }
      }
    }
  }
  JOINT pelvis_spine1
  {
    OFFSET 0 8.64413 -3.209807
    CHANNELS 3 Zrotation Xrotation Yrotation
    JOINT spine1
    {
      OFFSET 0 29.53957 -1.762685
      CHANNELS 3 Zrotation Xrotation Yrotation
      JOINT spine2
      {
        OFFSET 0 16.36153 -0.1422377
        CHANNELS 3 Zrotation Xrotation Yrotation
        JOINT neck
        {
          OFFSET 0 11.60093 5
          CHANNELS 3 Zrotation Xrotation Yrotation
          End Site
          {
            OFFSET 0 20 0
          }
        }
      }
      JOINT right_manubrium
      {
        OFFSET -4.671311 15.89868 4
        CHANNELS 3 Zrotation Xrotation Yrotation
        JOINT right_clavicle
        {
          OFFSET -13.601 1.573642 -2.74176
          CHANNELS 3 Zrotation Xrotation Yrotation
          JOINT right_humerus
          {
            OFFSET -0.06331682 -27.72702 2.252146
            CHANNELS 3 Zrotation Xrotation Yrotation
            JOINT right_radius
            {
              OFFSET -0.5696302 -23.92083 0.4042105
              CHANNELS 3 Zrotation Xrotation Yrotation
              End Site
              {
                OFFSET 0 -15 0
              }
            }
          }
        }
      }
      JOINT left_manubrium
      {
        OFFSET 4.671311 15.89868 4
        CHANNELS 3 Zrotation Xrotation Yrotation
        JOINT left_clavicle
        {
          OFFSET 13.601 1.573642 -2.74176
          CHANNELS 3 Zrotation Xrotation Yrotation
          JOINT left_humerus
          {
            OFFSET 0.000209614 -29.01858 1.101395
            CHANNELS 3 Zrotation Xrotation Yrotation
            JOINT left_radius
            {
              OFFSET -0.2288314 -24.59216 1.790347
              CHANNELS 3 Zrotation Xrotation Yrotation
              End Site
              {
                OFFSET 0 -15 0
              }
            }
          }
        }
      }
    }
  }
}
MOTION
Frames: 10
Frame Time: 0.0416666666667
0.2298386 47.81736 0.1018592 -3.419762 -21.97255 -2.696557 -50.02631 -60.1295 -38.97629 -180 81.52016 180 10.67528 2.698264 3.196708 63.92117 -48.33024 51.01612 180 71.90921 -180 -7.194764 -7.740152 -12.76575 -1.634012 18.31666 0.7513284 8.898816 15.17089 -10.66278 -8.963464 8.116146 9.292861 9.037844 -27.19556 4.904473 20.22341 -10.49772 26.28212 -60.05976 -34.77875 14.06415 -5.047559e-11 -69.22125 2.415678e-12 9.060933 -17.18153 3.142285 -26.72997 -32.64322 -4.800466 53.36714 -22.60677 -26.37283 1.147486e-10 -75.78242 2.927651e-10 -14.62649 -7.132391 -0.1148456
0.2070245 47.8012 0.08815996 -3.365021 -22.01818 -2.835065 -50.04208 -60.19909 -38.91401 -180 81.55893 180 10.67058 2.720921 3.216385 63.83244 -48.22464 50.99284 180 71.97462 -180 -7.185164 -7.732172 -12.74232 -1.630588 18.41783 0.5384331 8.927897 15.20557 -10.79515 -9.220364 8.197419 8.779936 9.129676 -26.97396 3.92782 20.04154 -10.9292 25.78319 -60.76657 -34.01421 13.32667 -1.66453e-10 -69.5394 -6.875877e-11 8.481585 -17.84738 2.766699 -26.83669 -32.73832 -4.415388 53.39713 -22.29807 -26.52354 -1.28115e-09 -76.1895 -1.422553e-09 -14.87551 -6.080251 -1.956677
0.1871593 47.78675 0.07970315 -3.28195 -22.05847 -2.924669 -50.07919 -60.27472 -38.85766 180 81.59165 -180 10.66596 2.740243 3.231876 63.72984 -48.12835 50.97036 180 72.04087 -180 -7.175852 -7.723586 -12.7154 -1.615589 18.54812 0.3312013 8.94422 15.24922 -10.92492 -9.456933 8.30111 8.11643 9.265821 -26.73279 2.719056 19.7953 -11.49625 25.27464 -61.60624 -33.118 12.46428 -2.485219e-10 -69.52504 -1.209063e-10 8.018613 -18.48162 2.43492 -26.92117 -32.90081 -3.962674 53.5445 -21.86869 -26.53663 -2.377146e-09 -76.40409 -2.769166e-09 -15.06682 -4.951028 -3.970585
0.1698891 47.77438 0.07741287 -3.164705 -22.08074 -2.956908 -50.16161 -60.35968 -38.83075 180 81.61228 -180 10.66164 2.753836 3.245297 63.61757 -48.04892 50.95997 180 72.10484 -180 -7.167588 -7.714983 -12.68516 -1.576378 18.71571 0.1416889 8.933644 15.29906 -11.03899 -9.683065 8.424734 7.314632 9.441222 -26.48716 1.295893 19.49137 -12.26453 24.77945 -62.6002 -32.05698 11.4235 -3.007061e-10 -69.00611 -1.542849e-10 7.657698 -19.05692 2.145296 -26.97646 -33.14721 -3.444297 53.81878 -21.3021 -26.38045 -3.205019e-09 -76.41536 -3.800756e-09 -15.18654 -3.762557 -6.152673
0.1547095 47.76446 0.08197915 -3.019548 -22.0726 -2.93002 -50.28956 -60.45026 -38.8397 180 81.60164 -180 10.65764 2.759236 3.255199 63.50146 -47.99518 50.96682 180 72.14577 -180 -7.160077 -7.707311 -12.65341 -1.511038 18.92141 -0.0171649 8.890511 15.35084 -11.126 -9.891341 8.562654 6.401672 9.650994 -26.2556 -0.2908053 19.13934 -13.23986 24.32223 -63.71759 -30.83999 10.2282 -2.98757e-10 -67.90983 -1.533534e-10 7.418645 -19.53515 1.926492 -26.98021 -33.50151 -2.887377 54.23276 -20.59962 -26.01347 -3.398322e-09 -76.12331 -4.080698e-09 -15.24082 -2.561157 -8.418167
0.1407005 47.75719 0.09348309 -2.844988 -22.02997 -2.842861 -50.47089 -60.54299 -38.89378 180 81.54843 -180 10.65355 2.755272 3.264432 63.37568 -47.97064 50.98695 180 72.15457 -180 -7.15425 -7.700429 -12.61886 -1.40977 19.15629 -0.1302988 8.806815 15.40126 -11.17338 -10.0871 8.708552 5.427067 9.879197 -26.05008 -1.964803 18.75449 -14.42358 23.95225 -64.91284 -29.5068 8.90908 -2.585587e-10 -66.14669 -1.296178e-10 7.291383 -19.88409 1.757297 -26.94428 -33.91268 -2.319858 54.73039 -19.80786 -25.5251 -3.148682e-09 -75.64473 -3.834293e-09 -15.2444 -1.38131 -10.72356
0.1265361 47.75262 0.1112362 -2.646754 -21.95283 -2.701359 -50.72877 -60.63899 -39.02027 180 81.48734 -180 10.65089 2.741807 3.276465 63.25715 -47.98104 51.03322 180 72.16411 -180 -7.152219 -7.695802 -12.583 -1.267333 19.4117 -0.1828022 8.679682 15.44784 -11.17094 -10.28022 8.853384 4.469287 10.1021 -25.89024 -3.607271 18.36964 -15.7846 23.72519 -66.12882 -28.13064 7.526635 -1.969582e-10 -63.71527 -9.577209e-11 7.262824 -20.06836 1.638666 -26.88595 -34.33118 -1.789103 55.25466 -19.00189 -25.0177 -2.63892e-09 -75.10365 -3.268246e-09 -15.2309 -0.2637859 -12.99863
0.110475 47.75065 0.1339967 -2.441119 -21.83828 -2.520461 -51.03579 -60.7313 -39.20516 180 81.39675 -180 10.64865 2.719604 3.292669 63.14883 -48.02457 51.09732 180 72.14573 -180 -7.153612 -7.69552 -12.54495 -1.09639 19.67202 -0.1739005 8.521157 15.4831 -11.11992 -10.46799 8.983475 3.603627 10.29811 -25.78307 -5.097702 18.01879 -17.25476 23.6754 -67.28498 -26.78798 6.157191 -1.193139e-10 -60.70265 -5.717997e-11 7.317835 -20.06586 1.572964 -26.79819 -34.71884 -1.368272 55.76402 -18.27041 -24.58241 -1.856386e-09 -74.48671 -2.351215e-09 -15.28321 0.7661962 -15.13076
0.09151529 47.751 0.1603165 -2.225941 -21.6923 -2.309775 -51.40431 -60.82211 -39.45794 180 81.29044 -180 10.64673 2.690868 3.316064 63.05202 -48.0946 51.18347 180 72.11729 -180 -7.158986 -7.696437 -12.50688 -0.8903968 19.92949 -0.1074022 8.324796 15.50436 -11.01894 -10.66951 9.094871 2.882545 10.44 -25.72855 -6.361282 17.7357 -18.8152 23.79717 -68.35196 -25.50823 4.789246 -5.565965e-11 -57.21179 -2.968637e-11 7.390797 -19.88681 1.532073 -26.71526 -35.04393 -1.040161 56.20519 -17.62258 -24.22494 -1.177931e-09 -73.99098 -1.539231e-09 -15.32296 1.641442 -17.06028
0.06919217 47.75327 0.1886755 -2.001346 -21.53088 -2.07929 -51.84962 -60.91389 -39.7888 180 81.21669 -180 10.64642 2.658706 3.347756 62.9747 -48.18593 51.29785 180 72.1288 -180 -7.169381 -7.6959 -12.4713 -0.6478514 20.17834 0.01230817 8.091212 15.5148 -10.87197 -10.89713 9.189443 2.336905 10.51191 -25.72308 -7.358225 17.54157 -20.40581 24.07908 -69.30576 -24.34302 3.458758 -1.415097e-11 -53.43413 -1.539784e-11 7.466631 -19.54352 1.53527 -26.67611 -35.27077 -0.7821388 56.53335 -17.0751 -23.97249 -7.280926e-10 -73.80207 -9.94844e-10 -15.28762 2.325198 -18.78413
